<svg width="41.185059" height="155.491196" viewBox="0 0 41.1851 155.491" fill="none" xmlns="http://www.w3.org/2000/svg" xmlns:xlink="http://www.w3.org/1999/xlink">
	<desc>
			Created with Pixso.
	</desc>
	<defs>
		<linearGradient x1="36.791336" y1="158.276230" x2="-11.657089" y2="8.355255" id="paint_linear_113_345_0" gradientUnits="userSpaceOnUse">
			<stop stop-color="#FFFFFF"/>
			<stop offset="1.000000" stop-color="#FFFFFF" stop-opacity="0.000000"/>
		</linearGradient>
	</defs>
	<path id="Arrow 4" d="M36.89 150.16L38.2 141.9C38.33 141.07 39.08 140.52 39.91 140.65C40.74 140.78 41.29 141.54 41.16 142.37L39.28 154.22C39.15 155.05 38.39 155.6 37.56 155.47L25.71 153.58C24.88 153.45 24.33 152.7 24.46 151.87C24.6 151.04 25.35 150.49 26.18 150.62L34.47 151.94Q19.38 130.84 11.73 115.59Q2.31 96.79 0.47 79.95Q-1.47 62.24 4.5 43.02Q10.41 23.98 25.17 0L27.72 1.57Q13.16 25.23 7.36 43.91Q1.58 62.53 3.45 79.63Q5.24 95.93 14.41 114.24Q21.95 129.27 36.89 150.16Z" fill="url(#paint_linear_113_345_0)" fill-opacity="1.000000" fill-rule="evenodd"/>
</svg>
