<svg width="34.000000" height="17.000000" viewBox="0 0 34 17" fill="none" xmlns="http://www.w3.org/2000/svg" xmlns:xlink="http://www.w3.org/1999/xlink">
	<desc>
			Created with Pixso.
	</desc>
	<defs/>
	<path id="Vector 37" d="M0 14.89L0 17L34 17L34 14.89L26.59 14.89L30.76 4.58C27.33 5.21 22.63 6.87 22.84 8.59C23.04 10.31 23.91 11.09 24.71 11.55C21.36 14.18 20.06 13.57 18.35 10.41C22.87 8.41 20.84 5.42 17 0C13.21 5.61 11.14 8.72 15.74 10.12C13.85 13.74 12.42 14.01 9.28 11.55C13.22 7.15 9.33 6.31 3.23 4.58L7.4 14.89L0 14.89Z" fill="#FFFFFF" fill-opacity="1.000000" fill-rule="evenodd"/>
</svg>
