<svg width="12.834839" height="6.575378" viewBox="0 0 12.8348 6.57538" fill="none" xmlns="http://www.w3.org/2000/svg" xmlns:xlink="http://www.w3.org/1999/xlink">
	<desc>
			Created with Pixso.
	</desc>
	<defs/>
	<path id="Vector" d="M12.56 0.27C12.48 0.18 12.38 0.11 12.26 0.07C12.15 0.02 12.03 0 11.91 0C11.79 0 11.67 0.02 11.56 0.07C11.45 0.11 11.35 0.18 11.26 0.27L7.06 4.46C6.98 4.55 6.88 4.62 6.76 4.67C6.65 4.71 6.53 4.74 6.41 4.74C6.29 4.74 6.17 4.71 6.06 4.67C5.95 4.62 5.85 4.55 5.76 4.46L1.56 0.27C1.48 0.18 1.38 0.11 1.26 0.07C1.15 0.02 1.03 0 0.91 0C0.79 0 0.67 0.02 0.56 0.07C0.45 0.11 0.35 0.18 0.26 0.27C0.09 0.44 0 0.67 0 0.91C0 1.15 0.09 1.39 0.26 1.56L4.47 5.77C4.98 6.28 5.68 6.57 6.41 6.57C7.14 6.57 7.84 6.28 8.36 5.77L12.56 1.56C12.73 1.39 12.83 1.15 12.83 0.91C12.83 0.67 12.73 0.44 12.56 0.27Z" fill="#FFFFFF" fill-opacity="1.000000" fill-rule="nonzero"/>
</svg>
