<svg width="52.000000" height="45.000000" viewBox="0 0 52 45" fill="none" xmlns="http://www.w3.org/2000/svg" xmlns:xlink="http://www.w3.org/1999/xlink">
	<desc>
			Created with Pixso.
	</desc>
	<defs>
		<linearGradient x1="6.975616" y1="1.928568" x2="33.609756" y2="45.000008" id="paint_linear_113_349_0" gradientUnits="userSpaceOnUse">
			<stop stop-color="#DD6C30"/>
			<stop offset="0.687500" stop-color="#E4864F"/>
			<stop offset="1.000000" stop-color="#FBB773"/>
			<stop offset="1.000000" stop-color="#FBB773"/>
		</linearGradient>
	</defs>
	<path id="Vector 33" d="M0 0L12.21 0L12.21 30.22L21.82 36.07L23.79 38.76L24.15 39.43L24.24 40.01L24.24 45L8.89 35.59L7.72 34.25L6.82 32.52L6.37 30.99L6.46 4.12L0 0ZM24.42 0L15.17 0L18.5 2.2L18.5 26.29L24.42 30.22L24.42 0ZM27.48 45L43.1 35.4L44 34.44L44.81 33.39L45.17 32.52L45.53 31.37L45.53 19.28L39.6 22.83L39.6 30.12L33.67 33.96L33.67 6.33L39.69 6.33L39.69 15.25L45.62 11.7L45.62 4.41L52 0L29.9 0L29 0.38L28.2 1.15L27.84 1.82L27.57 2.78L27.48 3.93L27.48 45Z" fill="url(#paint_linear_113_349_0)" fill-opacity="1.000000" fill-rule="evenodd"/>
	<path id="Vector 38" d="M18.33 26.47L25 31L25 0L15 0L18.33 2.58L18.33 26.47Z" fill="#FFFFFF" fill-opacity="1.000000" fill-rule="evenodd"/>
</svg>
